<svg xmlns="http://www.w3.org/2000/svg" viewBox="0 0 430.65 110.54"><defs><style>.cls-1{fill:#fff;}</style></defs><g id="Layer_2" data-name="Layer 2"><g id="logo"><path class="cls-1" d="M124.79,102.55h-6.56a1.36,1.36,0,0,1-1.52-1.55V79.79a1.34,1.34,0,0,1,1.52-1.52h6.56c4,0,7.1,1.07,9.27,3.22s3.27,5.11,3.27,8.92-1.09,6.72-3.27,8.87S128.79,102.53,124.79,102.55Zm-5.11-21.61V99.85h5.11a9.5,9.5,0,0,0,7-2.48,9.38,9.38,0,0,0,2.49-7,9.54,9.54,0,0,0-2.44-7q-2.44-2.49-7.06-2.49Z"/><path class="cls-1" d="M148.64,109.87a11.54,11.54,0,0,1-3.16-.42,5.9,5.9,0,0,1-2.18-1,1.47,1.47,0,0,1-.66-1.22,1.18,1.18,0,0,1,.35-.89,1.34,1.34,0,0,1,1-.33,6.62,6.62,0,0,1,1.78.63,7.12,7.12,0,0,0,2.9.63,5.72,5.72,0,0,0,4.18-1.44,5.31,5.31,0,0,0,1.47-4v-2h-.07a5.8,5.8,0,0,1-2.26,2.06,7.29,7.29,0,0,1-3.41.77q-6.74,0-6.73-8V87.24a1.72,1.72,0,0,1,.37-1.12,1.33,1.33,0,0,1,1.08-.46,1.4,1.4,0,0,1,1.12.46,1.68,1.68,0,0,1,.39,1.12v7.23q0,5.5,4.26,5.51a4.85,4.85,0,0,0,3.76-1.54,5.87,5.87,0,0,0,1.42-4.17l0-7a1.69,1.69,0,0,1,.4-1.12,1.35,1.35,0,0,1,1.09-.46,1.36,1.36,0,0,1,1.09.46,1.68,1.68,0,0,1,.39,1.12V100.8a10.13,10.13,0,0,1-2,6.7Q153.24,109.87,148.64,109.87Z"/><path class="cls-1" d="M166.11,102.09a1.33,1.33,0,0,1-1.1.46,1.35,1.35,0,0,1-1.11-.46,1.73,1.73,0,0,1-.38-1.12V91.14a2.56,2.56,0,0,0-1.22-2.54,1.61,1.61,0,0,1-.79-1.46,1.37,1.37,0,0,1,.46-1,1.57,1.57,0,0,1,1.19-.4,3,3,0,0,1,1.91,1,4,4,0,0,1,1,2.32h.07a6.53,6.53,0,0,1,2.46-2.62,6.9,6.9,0,0,1,3.68-1q6.75,0,6.76,8V101a1.73,1.73,0,0,1-.38,1.12,1.56,1.56,0,0,1-2.21,0,1.73,1.73,0,0,1-.38-1.12V93.64q0-5.53-4.29-5.54A4.92,4.92,0,0,0,168,89.68a5.92,5.92,0,0,0-1.45,4.16l0,7.13A1.67,1.67,0,0,1,166.11,102.09Z"/><path class="cls-1" d="M191,102.81a7,7,0,0,1-5.59-2.44,10.17,10.17,0,0,1,.05-12.52,7.2,7.2,0,0,1,5.67-2.45,7.51,7.51,0,0,1,3.68.9,5.87,5.87,0,0,1,2.46,2.59h.06V87a1.41,1.41,0,0,1,.32-.94,1.1,1.1,0,0,1,.9-.38,1.12,1.12,0,0,1,.91.38,1.4,1.4,0,0,1,.31.94V97.24a5.38,5.38,0,0,0,.22,1.85,2.09,2.09,0,0,0,1,.92,1.61,1.61,0,0,1,.75,1.32,1.47,1.47,0,0,1-.43,1.09,1.62,1.62,0,0,1-1.28.39q-2.61-.33-2.84-3.46h-.07a5.7,5.7,0,0,1-2.45,2.57A7.51,7.51,0,0,1,191,102.81Zm.66-2.63a4.86,4.86,0,0,0,3.89-1.7A6.84,6.84,0,0,0,197.08,94a6.24,6.24,0,0,0-1.47-4.38,5.17,5.17,0,0,0-4-1.6,4.82,4.82,0,0,0-3.78,1.67,7.35,7.35,0,0,0,0,8.79A4.87,4.87,0,0,0,191.7,100.18Z"/><path class="cls-1" d="M208.16,102.55a1.36,1.36,0,0,1-1.09-.46,1.68,1.68,0,0,1-.39-1.12V91.14a2.57,2.57,0,0,0-1.22-2.54,1.62,1.62,0,0,1-.8-1.46,1.38,1.38,0,0,1,.47-1,1.54,1.54,0,0,1,1.18-.4,3,3,0,0,1,1.9,1,4.09,4.09,0,0,1,1,2.32h.07a6.22,6.22,0,0,1,2.33-2.62,6.39,6.39,0,0,1,3.51-1,5.57,5.57,0,0,1,5.71,3.76h.1a6,6,0,0,1,2.39-2.71,6.53,6.53,0,0,1,3.54-1,6.32,6.32,0,0,1,5.12,2,9,9,0,0,1,1.71,5.94V101a1.67,1.67,0,0,1-.38,1.12,1.3,1.3,0,0,1-1.07.46,1.39,1.39,0,0,1-1.12-.46,1.69,1.69,0,0,1-.4-1.12V93.64c0-3.69-1.39-5.54-4.19-5.54a4.37,4.37,0,0,0-3.44,1.58,6,6,0,0,0-1.37,4.09V101a1.64,1.64,0,0,1-.4,1.12,1.34,1.34,0,0,1-1.09.46,1.36,1.36,0,0,1-1.09-.46,1.68,1.68,0,0,1-.39-1.12V93.64c0-3.69-1.38-5.54-4.12-5.54A4.47,4.47,0,0,0,211,89.68a6.21,6.21,0,0,0-1.35,4.16l0,7.13a1.73,1.73,0,0,1-.38,1.12A1.36,1.36,0,0,1,208.16,102.55Z"/><path class="cls-1" d="M240.59,82.59a2.46,2.46,0,0,1-1.75-.66,2.26,2.26,0,0,1-.69-1.71,2.24,2.24,0,0,1,.68-1.72,2.48,2.48,0,0,1,1.76-.63,2.36,2.36,0,0,1,1.73.63,2.29,2.29,0,0,1,.65,1.72,2.35,2.35,0,0,1-.65,1.71A2.3,2.3,0,0,1,240.59,82.59Zm1.11,19.5a1.35,1.35,0,0,1-1.11.46,1.33,1.33,0,0,1-1.1-.46,1.67,1.67,0,0,1-.38-1.12V87.24a1.67,1.67,0,0,1,.38-1.12,1.33,1.33,0,0,1,1.1-.46,1.35,1.35,0,0,1,1.11.46,1.73,1.73,0,0,1,.38,1.12V101A1.73,1.73,0,0,1,241.7,102.09Z"/><path class="cls-1" d="M255.27,102.81a8.33,8.33,0,0,1-6.3-2.42,8.72,8.72,0,0,1-2.34-6.32A8.59,8.59,0,0,1,249,87.79a8.44,8.44,0,0,1,6.34-2.39A7.66,7.66,0,0,1,260,86.68a1.7,1.7,0,0,1,.73,1.39,1.15,1.15,0,0,1-.35.84,1.22,1.22,0,0,1-.9.35,5.71,5.71,0,0,1-1.57-.58,6.15,6.15,0,0,0-2.66-.58,5.21,5.21,0,0,0-4,1.68,6.88,6.88,0,0,0,0,8.63,5.4,5.4,0,0,0,4.19,1.67,6.41,6.41,0,0,0,2.66-.56,5.65,5.65,0,0,1,1.57-.57,1.22,1.22,0,0,1,.9.35,1.11,1.11,0,0,1,.35.84,1.52,1.52,0,0,1-.79,1.35A7.84,7.84,0,0,1,255.27,102.81Z"/><path class="cls-1" d="M281.66,102.81a9.08,9.08,0,0,1-6.71-2.35,9.9,9.9,0,0,1-.1-12.71,7.72,7.72,0,0,1,5.83-2.35,7.45,7.45,0,0,1,5.6,2,7.58,7.58,0,0,1,2,5.51,2.64,2.64,0,0,1-.38,1.6,1.54,1.54,0,0,1-1.33.51H275.66a4.7,4.7,0,0,0,1.55,3.63,6.3,6.3,0,0,0,4.42,1.42,8,8,0,0,0,2.91-.53,7.21,7.21,0,0,1,1.68-.53,1.26,1.26,0,0,1,.91.35,1.14,1.14,0,0,1,.34.84,1.56,1.56,0,0,1-.79,1.35A8.68,8.68,0,0,1,281.66,102.81Zm-6-9.89h9.6a4.56,4.56,0,0,0,0-.66,4.26,4.26,0,0,0-1.2-3.17,5.3,5.3,0,0,0-7,.28A4.91,4.91,0,0,0,275.63,92.92Z"/><path class="cls-1" d="M292,102.52a1.42,1.42,0,0,1-1.41-1.42,1.36,1.36,0,0,1,.26-.83L298.72,90l-7.32-9.46a1.48,1.48,0,0,1-.23-.83,1.42,1.42,0,0,1,.39-1,1.35,1.35,0,0,1,1-.41,1.43,1.43,0,0,1,1.22.63l6.8,8.94h.07l6.73-8.94a1.41,1.41,0,0,1,1.25-.63,1.32,1.32,0,0,1,1,.41,1.39,1.39,0,0,1,.4,1,1.32,1.32,0,0,1-.27.82L302.42,90l7.88,10.26a1.48,1.48,0,0,1,.23.83,1.34,1.34,0,0,1-.41,1,1.35,1.35,0,0,1-1,.42,1.48,1.48,0,0,1-1.22-.66l-7.29-9.64h-.06l-7.29,9.67A1.58,1.58,0,0,1,292,102.52Z"/><path class="cls-1" d="M321.22,102.81a8.33,8.33,0,0,1-6.3-2.42,8.72,8.72,0,0,1-2.34-6.32,8.59,8.59,0,0,1,2.34-6.28,8.44,8.44,0,0,1,6.34-2.39A7.66,7.66,0,0,1,326,86.68a1.7,1.7,0,0,1,.73,1.39,1.15,1.15,0,0,1-.35.84,1.22,1.22,0,0,1-.9.35,5.6,5.6,0,0,1-1.57-.58,6.15,6.15,0,0,0-2.66-.58,5.21,5.21,0,0,0-4,1.68,6.88,6.88,0,0,0,0,8.63,5.4,5.4,0,0,0,4.19,1.67,6.41,6.41,0,0,0,2.66-.56,5.54,5.54,0,0,1,1.57-.57,1.22,1.22,0,0,1,.9.35,1.11,1.11,0,0,1,.35.84,1.52,1.52,0,0,1-.79,1.35A7.84,7.84,0,0,1,321.22,102.81Z"/><path class="cls-1" d="M332.44,102.55a1.35,1.35,0,0,1-1.09-.46A1.69,1.69,0,0,1,331,101V78.86a1.72,1.72,0,0,1,.38-1.14,1.4,1.4,0,0,1,1.11-.44,1.38,1.38,0,0,1,1.1.44,1.67,1.67,0,0,1,.38,1.14v9.27H334a6.14,6.14,0,0,1,2.31-1.94,7.19,7.19,0,0,1,3.4-.79q6.76,0,6.76,8V101a1.73,1.73,0,0,1-.38,1.12,1.53,1.53,0,0,1-2.19,0,1.64,1.64,0,0,1-.4-1.12V93.64q0-5.53-4.29-5.54a5.06,5.06,0,0,0-3.78,1.5,5.52,5.52,0,0,0-1.46,4l0,7.36a1.67,1.67,0,0,1-.38,1.12A1.33,1.33,0,0,1,332.44,102.55Z"/><path class="cls-1" d="M358.47,102.81a7,7,0,0,1-5.59-2.44,10.17,10.17,0,0,1,.05-12.52,7.2,7.2,0,0,1,5.67-2.45,7.51,7.51,0,0,1,3.68.9,5.87,5.87,0,0,1,2.46,2.59h.06V87a1.41,1.41,0,0,1,.32-.94,1.27,1.27,0,0,1,1.81,0,1.4,1.4,0,0,1,.31.94V97.24a5.38,5.38,0,0,0,.22,1.85,2.09,2.09,0,0,0,1,.92,1.61,1.61,0,0,1,.75,1.32,1.47,1.47,0,0,1-.43,1.09,1.62,1.62,0,0,1-1.28.39q-2.61-.33-2.84-3.46h-.07a5.65,5.65,0,0,1-2.45,2.57A7.51,7.51,0,0,1,358.47,102.81Zm.66-2.63a4.86,4.86,0,0,0,3.89-1.7A6.84,6.84,0,0,0,364.51,94,6.24,6.24,0,0,0,363,89.63a5.17,5.17,0,0,0-4-1.6,4.78,4.78,0,0,0-3.77,1.67,7.31,7.31,0,0,0,0,8.79A4.84,4.84,0,0,0,359.13,100.18Z"/><path class="cls-1" d="M376.7,102.09a1.36,1.36,0,0,1-1.11.46,1.33,1.33,0,0,1-1.1-.46,1.67,1.67,0,0,1-.38-1.12V91.14a2.57,2.57,0,0,0-1.22-2.54,1.62,1.62,0,0,1-.8-1.46,1.38,1.38,0,0,1,.47-1,1.54,1.54,0,0,1,1.18-.4,3,3,0,0,1,1.92,1,4.1,4.1,0,0,1,1,2.32h.06a6.53,6.53,0,0,1,2.46-2.62,6.93,6.93,0,0,1,3.68-1q6.76,0,6.76,8V101a1.67,1.67,0,0,1-.38,1.12,1.33,1.33,0,0,1-1.1.46,1.35,1.35,0,0,1-1.11-.46,1.73,1.73,0,0,1-.38-1.12V93.64q0-5.53-4.29-5.54a4.92,4.92,0,0,0-3.79,1.58,5.92,5.92,0,0,0-1.45,4.16l0,7.13A1.73,1.73,0,0,1,376.7,102.09Z"/><path class="cls-1" d="M401.69,109.87a11.56,11.56,0,0,1-3.19-.42,6.21,6.21,0,0,1-2.19-1,1.49,1.49,0,0,1-.63-1.22c0-.81.44-1.22,1.32-1.22a6.6,6.6,0,0,1,1.77.63,7,7,0,0,0,2.92.63,5.93,5.93,0,0,0,4.17-1.47q1.61-1.47,1.6-4.87v-.82h-.07a6.23,6.23,0,0,1-5.54,2.73,7.35,7.35,0,0,1-5.77-2.42,10.16,10.16,0,0,1,0-12.55,7.38,7.38,0,0,1,5.83-2.44,7,7,0,0,1,3.54.94A6.17,6.17,0,0,1,407.92,89H408V87a1.4,1.4,0,0,1,.31-.94,1.28,1.28,0,0,1,1.82,0,1.4,1.4,0,0,1,.31.94l0,12.9c0,3.23-.68,5.71-2,7.42S404.77,109.87,401.69,109.87Zm.53-9.79a5.26,5.26,0,0,0,4-1.57,6,6,0,0,0,1.48-4.31,6.44,6.44,0,0,0-1.48-4.4,5,5,0,0,0-3.93-1.7,4.88,4.88,0,0,0-3.84,1.67,7.17,7.17,0,0,0,0,8.67A4.84,4.84,0,0,0,402.22,100.08Z"/><path class="cls-1" d="M424.06,102.81q-4.37,0-6.72-2.35a9.9,9.9,0,0,1-.1-12.71,7.72,7.72,0,0,1,5.83-2.35,7.43,7.43,0,0,1,5.6,2,7.58,7.58,0,0,1,2,5.51,2.64,2.64,0,0,1-.38,1.6,1.54,1.54,0,0,1-1.33.51H418.05a4.7,4.7,0,0,0,1.55,3.63,6.31,6.31,0,0,0,4.42,1.42,8,8,0,0,0,2.91-.53,7.21,7.21,0,0,1,1.68-.53,1.24,1.24,0,0,1,.91.35,1.14,1.14,0,0,1,.34.84,1.56,1.56,0,0,1-.79,1.35A8.67,8.67,0,0,1,424.06,102.81Zm-6-9.89h9.6a4.56,4.56,0,0,0,0-.66,4.26,4.26,0,0,0-1.2-3.17,5.3,5.3,0,0,0-7,.28A4.91,4.91,0,0,0,418,92.92Z"/><path class="cls-1" d="M155.6,40.54q0,7.65-5.58,11.92t-14.41,4.28a31.42,31.42,0,0,1-16.43-4.09c-2-1.29-3-2.72-3-4.31a3.39,3.39,0,0,1,1.19-2.82,4.38,4.38,0,0,1,3-.9,62.57,62.57,0,0,1,6,2.23,24.76,24.76,0,0,0,9.1,2.08q5.35,0,8.14-2.19a6.7,6.7,0,0,0,2.78-5.46,5.5,5.5,0,0,0-.81-2.9,9.56,9.56,0,0,0-1.79-2.19,12.66,12.66,0,0,0-3.08-1.82c-1.41-.64-2.55-1.12-3.42-1.41l-4.12-1.42-1.34-.44q-7.51-2.54-11.15-6T117,15.42a12.6,12.6,0,0,1,5.28-10.59q5.26-4,14.49-4,9.73,0,14.64,3.35A4.55,4.55,0,0,1,153.67,8a3.26,3.26,0,0,1-1.08,2.63,4.36,4.36,0,0,1-2.94.93A20.73,20.73,0,0,1,144.34,10a22.15,22.15,0,0,0-8.06-1.6A12.71,12.71,0,0,0,129,10.22a5.81,5.81,0,0,0-2.72,5,5.42,5.42,0,0,0,2.23,4.57A24.36,24.36,0,0,0,135.16,23c2,.59,3.44,1.05,4.39,1.37l3.82,1.34A25.72,25.72,0,0,1,147,27.23c.79.45,1.74,1,2.86,1.71a9.41,9.41,0,0,1,2.49,2.12q.81,1.08,1.71,2.49a9.09,9.09,0,0,1,1.22,3.16A19.77,19.77,0,0,1,155.6,40.54Z"/><path class="cls-1" d="M180.35,72.57a26.71,26.71,0,0,1-7.06-.93,14.87,14.87,0,0,1-5.06-2.19,4.45,4.45,0,0,1-1.78-3.5,3.31,3.31,0,0,1,1-2.49,3.81,3.81,0,0,1,2.75-.93,13.83,13.83,0,0,1,4.28,1.3,15.12,15.12,0,0,0,5.91,1.31c3.56,0,6.37-1,8.43-2.83a10.13,10.13,0,0,0,3.08-7.88V50.79h-.14a10.71,10.71,0,0,1-4.8,4.05,16.57,16.57,0,0,1-7,1.45q-7.58,0-11.52-4.61T164.44,38V22.33a5,5,0,0,1,1-3.23,3.76,3.76,0,0,1,3.12-1.3,3.86,3.86,0,0,1,3.16,1.3,4.87,4.87,0,0,1,1.08,3.23v15q0,11.29,8.62,11.3a9.57,9.57,0,0,0,7.47-3.09q2.79-3.07,2.79-8.43l.07-14.79a4.87,4.87,0,0,1,1.08-3.23A3.86,3.86,0,0,1,196,17.8a3.77,3.77,0,0,1,3.08,1.3,4.87,4.87,0,0,1,1.08,3.23V51.24q0,10.17-4.54,15.75T180.35,72.57Z"/><path class="cls-1" d="M221,54.77a3.89,3.89,0,0,1-3.16,1.3,3.79,3.79,0,0,1-3.12-1.3,5,5,0,0,1-1-3.23V31c0-2.28-.77-3.86-2.3-4.76A4.6,4.6,0,0,1,209.18,22a4.06,4.06,0,0,1,1.26-3,4.32,4.32,0,0,1,3.35-1.19,7.07,7.07,0,0,1,4.53,1.86,8.5,8.5,0,0,1,2.45,4.9h.15a14.42,14.42,0,0,1,5.35-5.42,15.11,15.11,0,0,1,7.81-2q7.57,0,11.55,4.68t4,13.68v16a4.9,4.9,0,0,1-1.08,3.23,3.89,3.89,0,0,1-3.16,1.3,3.77,3.77,0,0,1-3.12-1.3,5,5,0,0,1-1-3.23V36.3q0-11.37-8.7-11.37a9.55,9.55,0,0,0-7.5,3.16,12.07,12.07,0,0,0-2.83,8.36l-.07,15.09A4.9,4.9,0,0,1,221,54.77Z"/><path class="cls-1" d="M275.84,56.66a16,16,0,0,1-12.6-5.46q-4.78-5.46-4.79-14.08,0-8.77,4.94-14.35a16.44,16.44,0,0,1,12.9-5.57,15.61,15.61,0,0,1,7.84,2,13.07,13.07,0,0,1,5.24,5.39h.14v-3a4.12,4.12,0,0,1,.86-2.64,3.61,3.61,0,0,1,5.13,0,4.12,4.12,0,0,1,.85,2.64v21.7a11.17,11.17,0,0,0,.41,3.72,4.39,4.39,0,0,0,1.9,1.86,4.7,4.7,0,0,1,2.08,3.71,4.14,4.14,0,0,1-1.19,3A4.66,4.66,0,0,1,296,56.66a6.45,6.45,0,0,1-4.72-2.11,8.92,8.92,0,0,1-2.12-4.87H289a11.48,11.48,0,0,1-5.2,5.2A17.23,17.23,0,0,1,275.84,56.66Zm2-7.43a9.74,9.74,0,0,0,7.84-3.38c1.9-2.25,2.86-5.26,2.86-9s-1-6.72-2.94-8.88a10.12,10.12,0,0,0-7.91-3.23A9.78,9.78,0,0,0,270,28.05a12.94,12.94,0,0,0-3,8.92,13,13,0,0,0,3,8.88A9.91,9.91,0,0,0,277.85,49.23Z"/><path class="cls-1" d="M318.65,71.27a3.8,3.8,0,0,1-3.13,1.3,3.87,3.87,0,0,1-3.15-1.3A4.91,4.91,0,0,1,311.29,68V31c0-2.28-.74-3.86-2.23-4.76A4.6,4.6,0,0,1,306.83,22a4.06,4.06,0,0,1,1.26-3,4.3,4.3,0,0,1,3.35-1.19,7.12,7.12,0,0,1,4.49,1.86,8.36,8.36,0,0,1,2.49,4.9h.15q3.94-7.43,13.3-7.43a15.89,15.89,0,0,1,12.6,5.5q4.8,5.51,4.79,14.05,0,8.76-4.94,14.34a16.39,16.39,0,0,1-12.89,5.57q-7.87,0-11.6-5h-.14V68A5.05,5.05,0,0,1,318.65,71.27Zm11.29-22.11a9.8,9.8,0,0,0,7.66-3.35,12.93,12.93,0,0,0,3-8.91,13.11,13.11,0,0,0-3-8.92,9.77,9.77,0,0,0-7.73-3.42A9.67,9.67,0,0,0,322,28,13.64,13.64,0,0,0,319.17,37a12.88,12.88,0,0,0,2.89,8.81A9.94,9.94,0,0,0,329.94,49.16Z"/><path class="cls-1" d="M371.93,56.66q-9.14,0-13.9-3.49a4.68,4.68,0,0,1-2.15-3.94,2.89,2.89,0,0,1,.93-2.3,3.34,3.34,0,0,1,2.49-.74,36.68,36.68,0,0,1,5.05,1.89,20.16,20.16,0,0,0,7.73,1.75q7.65,0,7.65-4.31a3.38,3.38,0,0,0-1.41-2.75,9.35,9.35,0,0,0-3.12-1.64q-1.71-.51-4.91-1.19a33.47,33.47,0,0,1-4.9-1.37,23.41,23.41,0,0,1-4.16-2.08A9,9,0,0,1,358,33.1a10.24,10.24,0,0,1-1.11-4.9,9.46,9.46,0,0,1,4.05-8q4-3,11.18-3A21.23,21.23,0,0,1,383.45,20c1.63.94,2.45,2.11,2.45,3.49a2.93,2.93,0,0,1-1.45,2.9,4.85,4.85,0,0,1-3.6.15,16.82,16.82,0,0,1-2.16-.82,23.37,23.37,0,0,0-3.31-1.11,14.32,14.32,0,0,0-3.6-.45q-6.54,0-6.54,3.87a3.87,3.87,0,0,0,.26,1.45,2.49,2.49,0,0,0,1,1.11,14.54,14.54,0,0,0,1.42.82,11.06,11.06,0,0,0,2,.7l2.27.6c.59.15,1.51.35,2.75.59q2.22.53,3.75.93a20.75,20.75,0,0,1,3.45,1.34,11.83,11.83,0,0,1,3.09,2,9.43,9.43,0,0,1,2,3,10.5,10.5,0,0,1,.82,4.23,10.93,10.93,0,0,1-3.79,8.51Q380.48,56.67,371.93,56.66Z"/><path class="cls-1" d="M415.7,56.66q-10.11,0-15.53-5.35t-5.43-14.56q0-8.78,5.17-14.16a17.66,17.66,0,0,1,13.34-5.39q8.25,0,12.82,4.72t4.57,12.52a6.13,6.13,0,0,1-1.08,4,4.62,4.62,0,0,1-3.68,1.26H403.36a8.46,8.46,0,0,0,3.16,6.65c2.11,1.81,5.14,2.71,9.11,2.71A17.16,17.16,0,0,0,421.68,48a14.31,14.31,0,0,1,3.76-1.08,3.53,3.53,0,0,1,2.6,1,3.26,3.26,0,0,1,1,2.38,4.58,4.58,0,0,1-2.3,3.87Q422.83,56.66,415.7,56.66ZM403.36,33.92H422a8,8,0,0,0,.07-1.34,8.12,8.12,0,0,0-2.26-5.94c-1.52-1.54-3.76-2.3-6.73-2.3a9.45,9.45,0,0,0-7,2.78A9.26,9.26,0,0,0,403.36,33.92Z"/><path class="cls-1" d="M71.81,94.47c.74-.55,1.38-1.06,2-1.52A45.21,45.21,0,0,0,91.8,68.86a43.43,43.43,0,0,0,2-13.85,47.75,47.75,0,0,0-1.2-9.88,46.32,46.32,0,0,0-4.33-11.69A8.81,8.81,0,0,0,87,31.59c-.94-1-2.17-1.1-3.75-.31a2.74,2.74,0,0,0-1.46,3,10,10,0,0,0,.9,2.35A38.09,38.09,0,0,1,87,49.19a39.67,39.67,0,0,1-.85,16A36.2,36.2,0,0,1,82.65,74a38.3,38.3,0,0,1-7.09,9.22,4.24,4.24,0,0,1-4.88.69A4.32,4.32,0,0,1,68,79.54a7.79,7.79,0,0,1,1.35-3c1.35-2,2.87-3.84,4.29-5.77a3.71,3.71,0,0,0,.67-3.08,3,3,0,0,0-4.49-1.9,7,7,0,0,0-1.73,1.79,25.89,25.89,0,0,1-9.74,8.76,21.57,21.57,0,0,1-8.46,2.24,23.27,23.27,0,0,1-12.26-2.63,34.68,34.68,0,0,1-6-4.33,4.35,4.35,0,0,1-.13-6.26,4.4,4.4,0,0,1,6.57-.23,14.69,14.69,0,0,0,6.7,3.77,13.37,13.37,0,0,0,4.76.27A13.88,13.88,0,0,0,62.2,55.06a13.88,13.88,0,0,0-12-13.7c-4.48-.7-8.23.77-11.63,3.55a10,10,0,0,1-2,1.32,4.29,4.29,0,0,1-5.36-1.45,4.37,4.37,0,0,1,.12-5.72,21.56,21.56,0,0,1,11.75-6.7A24.36,24.36,0,0,1,57,33.49,20.38,20.38,0,0,1,64.92,39c1.22,1.37,2.29,2.87,3.4,4.33A3.62,3.62,0,0,0,70.67,45a3,3,0,0,0,3.24-1.41A3.13,3.13,0,0,0,74,40.2a28.81,28.81,0,0,0-5.54-7,29.67,29.67,0,0,0-12.73-7,27,27,0,0,0-10.21-.72c-1.8.21-3.58.56-5.36.85A4.66,4.66,0,0,1,34.75,23a3.81,3.81,0,0,1,1-3.94,7.92,7.92,0,0,1,4.31-2.16,34.32,34.32,0,0,1,9.36-.95,29.27,29.27,0,0,1,3.85.44c1.75.29,3.48.77,5.25,1,2.34.33,3.15-.49,3.5-2.75a3.47,3.47,0,0,0-3-4c-1.26-.23-2.52-.53-3.79-.74a18.34,18.34,0,0,0-2.76-.3c-2.88,0-5.76-.17-8.62,0a54,54,0,0,0-7,1.24,32.83,32.83,0,0,0-7.67,2.64c-2.45,1.19-4.83,2.56-7.17,4A24.86,24.86,0,0,0,19,19.89c-.74.62-1.43,1.3-2.13,2a14,14,0,0,1-1.53,1.46,4.59,4.59,0,0,1-7.23-2.7,4.28,4.28,0,0,1,1.23-4.26A54.48,54.48,0,0,1,25,5.21a56.19,56.19,0,0,1,12-4A54.54,54.54,0,0,1,46.94,0,51.75,51.75,0,0,1,59.29,1.14,56.33,56.33,0,0,1,76.58,8,55,55,0,0,1,91.92,21.84a29.22,29.22,0,0,1,5.79,13A42.48,42.48,0,0,1,98,40.35c0,.63-.07,1.26,0,1.88a1.93,1.93,0,0,1-1,1.81c-1.59,1-1.8,1.93-.9,3.58,1.79,3.28,3.53,6.59,5.31,9.88.89,1.63,1.83,3.24,2.76,4.84.73,1.25.67,1.84-.44,2.73a7.47,7.47,0,0,1-3.73,1.38,10.05,10.05,0,0,0-2.43.6,3,3,0,0,0-1.81,3.6,26.74,26.74,0,0,0,.88,2.71c.8,2.26.54,3-1.5,4.3-1.3.8-1.3.8-.61,2.18.88,1.78.67,2.7-.92,3.84-.54.39-1.1.76-1.65,1.14a4.15,4.15,0,0,0-2,3.7c0,.78,0,1.56,0,2.34a4.54,4.54,0,0,1-3.8,4.78,24.5,24.5,0,0,1-13.65-.79A3.2,3.2,0,0,1,71.81,94.47ZM11.38,19.19a1.45,1.45,0,0,0,1.47,1.48,1.48,1.48,0,0,0,1.44-1.45,1.44,1.44,0,0,0-1.52-1.48A1.37,1.37,0,0,0,11.38,19.19Zm28,4.47a1.5,1.5,0,0,0,1.49-1.42,1.48,1.48,0,0,0-1.4-1.49A1.5,1.5,0,0,0,38,22.15,1.56,1.56,0,0,0,39.42,23.66Z"/><path class="cls-1" d="M49.66,110.52a55.31,55.31,0,0,1-26.57-6.19,57.7,57.7,0,0,1-11.61-8.25c-.71-.63-1.43-1.25-2.13-1.9a4.48,4.48,0,0,1-.9-5.92,4.67,4.67,0,0,1,6-1.78,20.33,20.33,0,0,1,2.94,2c2.65,1.94,5.27,3.92,7.92,5.87,1.54,1.13,2.84,1,3.95-.49a3,3,0,0,0-.43-4.23,29,29,0,0,0-2.59-1.84,37.82,37.82,0,0,1-9.63-9.46c-.76-1-1.49-2-2.21-3-1.78-2.5-1.36-4.94,1.15-6.74a4.62,4.62,0,0,1,6.66,1.24c1.15,1.59,2.22,3.26,3.47,4.76a28.82,28.82,0,0,0,13.81,9,27.11,27.11,0,0,0,15.73.4,5,5,0,0,1,5.48,1.39,4.79,4.79,0,0,1-2.8,7.9c-2.73.52-5.51.79-8.27,1.2a11.2,11.2,0,0,0-2.39.53,3.13,3.13,0,0,0-2.05,4.11A10.78,10.78,0,0,0,47.37,103a20.34,20.34,0,0,0,8.81,6.2,3.13,3.13,0,0,1,.6.24,2.06,2.06,0,0,1,.4.43c-.17.09-.34.26-.52.27-1.6.14-3.19.26-4.79.35C51.14,110.56,50.4,110.52,49.66,110.52ZM14.13,91.58a1.31,1.31,0,1,0-1.3,1.32A1.27,1.27,0,0,0,14.13,91.58ZM16.8,72.43a1.3,1.3,0,0,0,1.27,1.35,1.34,1.34,0,0,0,1.31-1.27,1.31,1.31,0,0,0-1.29-1.33A1.27,1.27,0,0,0,16.8,72.43Z"/><path class="cls-1" d="M19,30.77a4.84,4.84,0,0,1,4.65-4.94,5.2,5.2,0,0,1,5.05,4.93,4.91,4.91,0,0,1-4.85,4.77A4.54,4.54,0,0,1,19,30.77Z"/><path class="cls-1" d="M52.77,55.2c.29,2.3-2,4.58-4.46,4.6a4.63,4.63,0,0,1-4.79-4.7,4.73,4.73,0,0,1,4.67-4.53C50.64,50.57,53.07,52.91,52.77,55.2Z"/><path class="cls-1" d="M4.65,75.74c2.16-.17,4.6,2.37,4.64,4.46A4.61,4.61,0,0,1,4.68,85,4.51,4.51,0,0,1,0,80.26C0,78,2.33,75.52,4.65,75.74Z"/></g></g></svg>